<?xml version="1.0" encoding="UTF-8" standalone="no"?>
<svg
   xmlns:dc="http://purl.org/dc/elements/1.1/"
   xmlns:cc="http://creativecommons.org/ns#"
   xmlns:rdf="http://www.w3.org/1999/02/22-rdf-syntax-ns#"
   xmlns:svg="http://www.w3.org/2000/svg"
   xmlns="http://www.w3.org/2000/svg"
   xmlns:sodipodi="http://sodipodi.sourceforge.net/DTD/sodipodi-0.dtd"
   xmlns:inkscape="http://www.inkscape.org/namespaces/inkscape"
   width="225.76898"
   height="68.393066"
   viewBox="0 0 197.07387 189.46822"
   id="svg2"
   sodipodi:version="0.32"
   inkscape:version="0.48.4 r9939"
   sodipodi:docname="Haaretz.svg"
   inkscape:output_extension="org.inkscape.output.svg.inkscape"
   version="1.0">
  <metadata
     id="metadata35">
    <rdf:RDF>
      <cc:Work
         rdf:about="">
        <dc:format>image/svg+xml</dc:format>
        <dc:type
           rdf:resource="http://purl.org/dc/dcmitype/StillImage" />
      </cc:Work>
    </rdf:RDF>
  </metadata>
  <defs
     id="defs33">
    <inkscape:perspective
       sodipodi:type="inkscape:persp3d"
       inkscape:vp_x="0 : 120.625 : 1"
       inkscape:vp_y="0 : 1000 : 0"
       inkscape:vp_z="241.25 : 120.625 : 1"
       inkscape:persp3d-origin="120.625 : 80.416667 : 1"
       id="perspective37" />
  </defs>
  <sodipodi:namedview
     inkscape:window-height="962"
     inkscape:window-width="1280"
     inkscape:pageshadow="2"
     inkscape:pageopacity="0.0"
     guidetolerance="10.0"
     gridtolerance="10.0"
     objecttolerance="10.0"
     borderopacity="1.0"
     bordercolor="#666666"
     pagecolor="#ffffff"
     id="base"
     showgrid="false"
     inkscape:zoom="1.3069176"
     inkscape:cx="155.73612"
     inkscape:cy="-91.732801"
     inkscape:window-x="-8"
     inkscape:window-y="-8"
     inkscape:current-layer="svg2"
     fit-margin-top="0"
     fit-margin-left="0"
     fit-margin-right="0"
     fit-margin-bottom="0"
     inkscape:window-maximized="1" />
  <g
     transform="matrix(3.4628551,0,0,-3.4628551,-388.05652,585.53174)"
     id="g3104">
    <path
       d="m 92.2334,168.6836 38.413,0 c 2.119,-2.648 2.51,-8.207 2.649,-9.963 0.217,-2.748 -1.855,-9.641 -1.325,-15.733 0.239,-2.747 1.646,-8.207 1.325,-12.716 -0.398,-5.564 -2.256,-13.543 -2.795,-14.854 -0.255,0.009 -0.074,-0.501 -0.861,-0.168 -1.111,5.676 -4.027,18.569 -4.027,18.569 1.51,2.631 6.358,17.645 -0.53,19.765 -8.915,0.16 -1.554,-0.02 -32.77,-0.02 -2.33,3.994 -2.861,10.087 -0.079,15.12"
       style="fill:#0a0d0c;fill-opacity:1;fill-rule:evenodd;stroke:none"
       id="path22"
       inkscape:connector-curvature="0" />
    <path
       d="m 92.2334,168.6836 38.413,0 c 2.119,-2.648 2.51,-8.207 2.649,-9.963 0.217,-2.748 -1.855,-9.641 -1.325,-15.733 0.239,-2.747 1.646,-8.207 1.325,-12.716 -0.398,-5.564 -2.256,-13.543 -2.795,-14.854 -0.255,0.009 -0.074,-0.501 -0.861,-0.168 -1.111,5.676 -4.027,18.569 -4.027,18.569 1.51,2.631 6.358,17.645 -0.53,19.765 -8.915,0.16 -1.554,-0.02 -32.77,-0.02 -2.33,3.994 -2.861,10.087 -0.079,15.12 z"
       style="fill:none;stroke:#0a0d0c;stroke-width:0.28200001;stroke-linecap:butt;stroke-linejoin:miter;stroke-miterlimit:3.86400008;stroke-opacity:1;stroke-dasharray:none"
       id="path26"
       inkscape:connector-curvature="0" />
    <path
       d="m 133.481,168.6836 3.629,0 c 4.999,-4.053 16.929,-12.817 25.122,-19.032 0.889,0.594 1.899,1.991 2.704,5.106 1.029,3.984 -0.442,6.29 -0.584,8.934 -0.139,2.567 0.361,3.964 0.361,5.18 0,0 2.066,-0.084 17.697,-0.084 -4.504,-8.846 0.397,-15.292 0.397,-15.292 0,0 -6.358,0.088 -12.848,0.088 -1.793,0 -3.619,-1.811 -3.975,-3.973 -0.279,-1.709 0.44,-3.625 1.327,-4.24 6.523,-4.517 10.5,-7.89 15.638,-11.403 -0.804,-3.696 -0.9,-4.853 -0.275,-8.729 0.494,-3.052 1.314,-5.893 2.713,-8.854 0.066,-0.139 -0.264,-0.146 -0.196,-0.286 l -43.387,32.515 c -0.191,-0.063 -2.707,-2.021 -3.237,-6.288 -0.697,-5.621 -0.213,-13.974 5.563,-13.909 3.626,0.041 7.815,0 7.815,0 0,0 -1.589,-5.828 2.119,-13.51 l -20.795,0 c 0,0 -0.556,0.39 -0.382,0.922 0.696,2.122 2.475,8.138 2.898,15.341 0.293,4.962 -1.363,9.215 -1.368,14.243 -0.005,4.608 0.706,5.39 1.236,10.953 0.407,4.275 -0.133,8.609 -2.172,12.318"
       style="fill:#0a0d0c;fill-opacity:1;fill-rule:evenodd;stroke:none"
       id="path30"
       inkscape:connector-curvature="0" />
    <path
       d="m 133.481,168.6836 3.629,0 c 4.999,-4.053 16.929,-12.817 25.122,-19.032 0.889,0.594 1.899,1.991 2.704,5.106 1.029,3.984 -0.442,6.29 -0.584,8.934 -0.139,2.567 0.361,3.964 0.361,5.18 0,0 2.066,-0.084 17.697,-0.084 -4.504,-8.846 0.397,-15.292 0.397,-15.292 0,0 -6.358,0.088 -12.848,0.088 -1.793,0 -3.619,-1.811 -3.975,-3.973 -0.279,-1.709 0.44,-3.625 1.327,-4.24 6.523,-4.517 10.5,-7.89 15.638,-11.403 -0.804,-3.696 -0.9,-4.853 -0.275,-8.729 0.494,-3.052 1.314,-5.893 2.713,-8.854 0.066,-0.139 -0.264,-0.146 -0.196,-0.286 l -43.387,32.515 c -0.191,-0.063 -2.707,-2.021 -3.237,-6.288 -0.697,-5.621 -0.213,-13.974 5.563,-13.909 3.626,0.041 7.815,0 7.815,0 0,0 -1.589,-5.828 2.119,-13.51 l -20.795,0 c 0,0 -0.556,0.39 -0.382,0.922 0.696,2.122 2.475,8.138 2.898,15.341 0.293,4.962 -1.363,9.215 -1.368,14.243 -0.005,4.608 0.706,5.39 1.236,10.953 0.407,4.275 -0.133,8.609 -2.172,12.318 z"
       style="fill:none;stroke:#0a0d0c;stroke-width:0.28200001;stroke-linecap:butt;stroke-linejoin:miter;stroke-miterlimit:3.86400008;stroke-opacity:1;stroke-dasharray:none"
       id="path34"
       inkscape:connector-curvature="0" />
    <path
       d="m 71.168,168.8574 c -5.347,-15.435 0.349,-24.811 3.934,-32.85 -2.128,-11.726 -2.312,-13.94 -3.562,-21.372 0,0 -0.486,-0.269 -0.556,0 -0.829,3.228 -2.514,10.971 -4.898,21.303 2.994,7.446 1.881,17.277 -2.702,17.646 -3.964,0.318 -8.025,0.047 -8.025,0.047 0,1.896 0.633,8.195 -3.542,14.608 -0.112,0.172 -0.068,0.449 -0.187,0.62 l 19.538,-0.002 z"
       style="fill:#0a0d0c;fill-opacity:1;fill-rule:evenodd;stroke:none"
       id="path38"
       inkscape:connector-curvature="0" />
    <path
       d="m 71.168,168.8574 c -5.347,-15.435 0.349,-24.811 3.934,-32.85 -2.128,-11.726 -2.312,-13.94 -3.562,-21.372 0,0 -0.486,-0.269 -0.556,0 -0.829,3.228 -2.514,10.971 -4.898,21.303 2.994,7.446 1.881,17.277 -2.702,17.646 -3.964,0.318 -8.025,0.047 -8.025,0.047 0,1.896 0.633,8.195 -3.542,14.608 -0.112,0.172 -0.068,0.449 -0.187,0.62 l 19.538,-0.002 z"
       style="fill:none;stroke:#0a0d0c;stroke-width:0.28200001;stroke-linecap:butt;stroke-linejoin:miter;stroke-miterlimit:3.86400008;stroke-opacity:1;stroke-dasharray:none"
       id="path42"
       inkscape:connector-curvature="0" />
    <path
       d="m 72.6621,168.873 16.958,-0.016 c -3.93,-8.547 -0.663,-13.642 0.123,-15.241 0.075,0.075 -6.604,0.23 -7.806,0.009 -5.44,-0.997 -5.44,-3.353 -8.089,-9.711 -0.927,-0.265 -1.782,3.207 -1.325,4.478 2.384,6.623 2.914,13.773 0.139,20.481"
       style="fill:#0a0d0c;fill-opacity:1;fill-rule:evenodd;stroke:none"
       id="path46"
       inkscape:connector-curvature="0" />
    <path
       d="m 72.6621,168.873 16.958,-0.016 c -3.93,-8.547 -0.663,-13.642 0.123,-15.241 0.075,0.075 -6.604,0.23 -7.806,0.009 -5.44,-0.997 -5.44,-3.353 -8.089,-9.711 -0.927,-0.265 -1.782,3.207 -1.325,4.478 2.384,6.623 2.914,13.773 0.139,20.481 z"
       style="fill:none;stroke:#0a0d0c;stroke-width:0.28200001;stroke-linecap:butt;stroke-linejoin:miter;stroke-miterlimit:3.86400008;stroke-opacity:1;stroke-dasharray:none"
       id="path50"
       inkscape:connector-curvature="0" />
    <path
       d="m 188.6445,145.8105 c 0.041,-0.188 0.568,0.162 0.662,0 7.012,-12.229 0.123,-30.948 0.123,-30.771 l -0.904,-0.092 c -0.758,2.138 -1.662,3.874 -2.385,7.153 -0.861,3.907 -1.435,6.805 -0.684,10.952 0.612,1.459 1.215,4.25 1.678,6.135 0.86,3.51 1.51,6.623 1.51,6.623"
       style="fill:#0a0d0c;fill-opacity:1;fill-rule:evenodd;stroke:none"
       id="path54"
       inkscape:connector-curvature="0" />
    <path
       d="m 188.6445,145.8105 c 0.041,-0.188 0.568,0.162 0.662,0 7.012,-12.229 0.123,-30.948 0.123,-30.771 l -0.904,-0.092 c -0.758,2.138 -1.662,3.874 -2.385,7.153 -0.861,3.907 -1.435,6.805 -0.684,10.952 0.612,1.459 1.215,4.25 1.678,6.135 0.86,3.51 1.51,6.623 1.51,6.623 z"
       style="fill:none;stroke:#0a0d0c;stroke-width:0.28200001;stroke-linecap:butt;stroke-linejoin:miter;stroke-miterlimit:3.86400008;stroke-opacity:1;stroke-dasharray:none"
       id="path58"
       inkscape:connector-curvature="0" />
    <path
       d="m 185.3086,168.9033 c 0,0 24.441,0.045 43.461,0.045 3.443,0 3.18,-8.212 3.18,-8.212 0,-0.642 0.207,-6.022 -0.995,-7.551 -2.185,-2.78 -2.898,-6.345 -1.656,-11.523 0.795,-3.312 1.959,-5.44 2.119,-6.887 0.266,-2.385 -3.088,-19.221 -3.31,-19.869 l -0.764,0.041 c -1.615,8.208 -4.101,17.955 -3.474,20.093 0.834,2.837 2.771,8.168 2.252,10.861 -0.418,2.162 -1.868,7.643 -4.211,7.645 -20.627,0.012 -22.555,0.008 -36.586,0.038 -4.977,8.766 -0.016,15.319 -0.016,15.319"
       style="fill:#0a0d0c;fill-opacity:1;fill-rule:evenodd;stroke:none"
       id="path62"
       inkscape:connector-curvature="0" />
    <path
       d="m 185.3086,168.9033 c 0,0 24.441,0.045 43.461,0.045 3.443,0 3.18,-8.212 3.18,-8.212 0,-0.642 0.207,-6.022 -0.995,-7.551 -2.185,-2.78 -2.898,-6.345 -1.656,-11.523 0.795,-3.312 1.959,-5.44 2.119,-6.887 0.266,-2.385 -3.088,-19.221 -3.31,-19.869 l -0.764,0.041 c -1.615,8.208 -4.101,17.955 -3.474,20.093 0.834,2.837 2.771,8.168 2.252,10.861 -0.418,2.162 -1.868,7.643 -4.211,7.645 -20.627,0.012 -22.555,0.008 -36.586,0.038 -4.977,8.766 -0.016,15.319 -0.016,15.319 z"
       style="fill:none;stroke:#0a0d0c;stroke-width:0.28200001;stroke-linecap:butt;stroke-linejoin:miter;stroke-miterlimit:3.86400008;stroke-opacity:1;stroke-dasharray:none"
       id="path66"
       inkscape:connector-curvature="0" />
  </g>
</svg>
